HIERARCHY
ROOT Hips
{
 OFFSET 0.000000 0.000000 0.000000
 CHANNELS 6 Xposition Yposition Zposition Yrotation Xrotation Zrotation
 JOINT Chest
 {
  OFFSET 0.000000 9.585900 0.002600
  CHANNELS 3 Yrotation Xrotation Zrotation
  JOINT Chest2
  {
   OFFSET 0.000000 9.601200 -0.005300
   CHANNELS 3 Yrotation Xrotation Zrotation
   JOINT Chest3
   {
    OFFSET 0.000000 9.561800 0.000000
    CHANNELS 3 Yrotation Xrotation Zrotation
    JOINT Chest4
    {
     OFFSET 0.000000 9.552100 0.000000
     CHANNELS 3 Yrotation Xrotation Zrotation
     JOINT Neck
     {
      OFFSET 0.000000 14.453000 0.000000
      CHANNELS 3 Yrotation Xrotation Zrotation
      JOINT Head
      {
       OFFSET 0.000000 8.936500 -0.011300
       CHANNELS 3 Yrotation Xrotation Zrotation
       End Site
       {
        OFFSET 0.000000 17.073600 -0.006000
       }
      }
     }
     JOINT RightCollar
     {
      OFFSET -2.921100 9.558500 0.000000
      CHANNELS 3 Yrotation Xrotation Zrotation
      JOINT RightShoulder
      {
       OFFSET -13.519700 0.000000 0.000000
       CHANNELS 3 Yrotation Xrotation Zrotation
       JOINT RightElbow
       {
        OFFSET 0.000000 -29.696600 0.000000
        CHANNELS 3 Yrotation Xrotation Zrotation
        JOINT RightWrist
        {
         OFFSET 0.000000 -24.004700 0.000000
         CHANNELS 3 Yrotation Xrotation Zrotation
         End Site
         {
          OFFSET 0.000000 -17.728500 0.000000
         }
        }
       }
      }
     }
     JOINT LeftCollar
     {
      OFFSET 2.921100 9.558500 0.000000
      CHANNELS 3 Yrotation Xrotation Zrotation
      JOINT LeftShoulder
      {
       OFFSET 13.519700 0.000000 0.000000
       CHANNELS 3 Yrotation Xrotation Zrotation
       JOINT LeftElbow
       {
        OFFSET 0.000000 -29.696600 0.000000
        CHANNELS 3 Yrotation Xrotation Zrotation
        JOINT LeftWrist
        {
         OFFSET 0.000000 -24.004700 0.000000
         CHANNELS 3 Yrotation Xrotation Zrotation
         End Site
         {
          OFFSET 0.000000 -17.728500 0.000000
         }
        }
       }
      }
     }
    }
   }
  }
 }
 JOINT RightHip
 {
  OFFSET -7.771700 -0.012900 -0.001300
  CHANNELS 3 Yrotation Xrotation Zrotation
  JOINT RightKnee
  {
   OFFSET 0.000000 -40.869800 0.001200
   CHANNELS 3 Yrotation Xrotation Zrotation
   JOINT RightAnkle
   {
    OFFSET 0.000000 -39.717900 0.002100
    CHANNELS 3 Yrotation Xrotation Zrotation
    JOINT RightToe
    {
     OFFSET 0.000000 -4.965400 11.033500
     CHANNELS 3 Yrotation Xrotation Zrotation
     End Site
     {
      OFFSET 0.000000 -1.423100 5.872300
     }
    }
   }
  }
 }
 JOINT LeftHip
 {
  OFFSET 7.771700 -0.012900 -0.001300
  CHANNELS 3 Yrotation Xrotation Zrotation
  JOINT LeftKnee
  {
   OFFSET 0.000000 -40.869800 0.001200
   CHANNELS 3 Yrotation Xrotation Zrotation
   JOINT LeftAnkle
   {
    OFFSET 0.000000 -39.717900 0.002100
    CHANNELS 3 Yrotation Xrotation Zrotation
    JOINT LeftToe
    {
     OFFSET 0.000000 -4.965400 11.033500
     CHANNELS 3 Yrotation Xrotation Zrotation
     End Site
     {
      OFFSET 0.000000 -1.423100 5.872300
     }
    }
   }
  }
 }
}
MOTION
Frames: 13
Frame Time: 0.008333
0.000000 85.388000 0.000000 0.000000 -5.767877 0.000000 0.000000 11.653817 0.000000 0.000000 -5.885947 0.000000 0.000000 -0.000000 0.000000 0.000000 -0.000000 0.000000 0.000000 12.528835 0.000000 0.000000 0.711642 0.000000 0.000000 -0.000000 0.000000 0.000000 0.000000 -90.000000 0.000000 -2.309062 0.000000 0.000000 2.309062 0.000000 0.000000 -0.000000 0.000000 0.000000 -0.000000 90.000000 0.000000 -2.309062 0.000000 0.000000 2.309062 0.000000 0.000000 8.520406 0.000000 0.000000 1.905762 0.000000 -0.000000 -4.658285 0.000000 0.000000 -0.000000 0.000000 0.000000 8.520406 0.000000 0.000000 1.905762 0.000000 -0.000000 -4.658285 0.000000 0.000000 -0.000000 0.000000
-13.614075 57.234851 67.213466 167.297781 -44.603351 -3.621147 3.006007 26.366549 6.064570 0.366859 4.675341 0.665992 0.606321 7.404961 1.072293 2.308314 21.892073 3.542152 1.848779 13.633388 -4.048534 5.037403 -10.252036 -8.427961 12.100072 1.697918 -3.762070 20.965054 -35.123130 -10.810770 157.619268 -45.145826 -150.209025 24.004396 -19.593454 -53.476603 -11.020734 -1.143010 -5.199386 4.321404 -29.339944 -9.534837 -152.342309 -33.934528 155.547917 -13.645624 -16.997009 35.135556 11.128883 -28.566679 6.073077 -8.419681 63.627815 -5.290829 3.796570 9.921659 5.104144 -0.427334 0.484968 -0.216571 -10.358565 -32.443822 8.936613 28.857561 59.595043 31.623739 -9.779486 37.071108 -4.114874 0.272810 -15.810410 -7.754365
-13.594477 57.235284 67.212170 167.308039 -44.607997 -3.660809 3.016748 26.365015 6.101776 0.368748 4.668262 0.665495 0.610068 7.386606 1.069791 2.308695 21.884232 3.539182 1.830623 13.636109 -4.068370 5.004388 -10.243751 -8.460180 12.136852 1.706254 -3.763043 20.941112 -35.041037 -10.806428 157.678995 -45.068553 -150.266015 23.960182 -19.604553 -53.471853 -11.011455 -1.169536 -5.161552 4.224255 -29.325107 -9.510083 -152.444904 -34.112085 155.595712 -13.622986 -16.947136 35.128312 11.107603 -28.578510 6.121755 -8.402831 63.640677 -5.277259 3.806473 9.953301 5.126396 -0.448260 0.465487 -0.230553 -10.399555 -32.420025 8.978954 28.801881 59.622899 31.637511 -9.918196 36.940030 -4.415851 0.320266 -15.703113 -7.607758
-13.571170 57.235163 67.211165 167.315985 -44.610751 -3.706294 3.043111 26.349359 6.151914 0.379820 4.650727 0.666128 0.609812 7.381632 1.068400 2.307332 21.888078 3.540660 1.800100 13.618262 -4.115437 4.963763 -10.219393 -8.461707 12.216303 1.677209 -3.790375 20.824700 -34.934994 -10.745191 157.722750 -44.991540 -150.322549 23.940626 -19.612239 -53.492294 -11.004469 -1.193284 -5.120968 4.162586 -29.302589 -9.495719 -152.545584 -34.267340 155.642490 -13.606315 -16.903241 35.130409 11.086040 -28.593639 6.175662 -8.402104 63.651937 -5.269743 3.822412 9.984687 5.144982 -0.455679 0.486975 -0.235553 -10.446517 -32.397661 9.030038 28.717096 59.658192 31.629509 -10.074572 36.812329 -4.737117 0.382443 -15.597679 -7.461429
-13.550945 57.235689 67.207245 167.297879 -44.626832 -3.700663 3.072083 26.349267 6.167956 0.381260 4.651644 0.669119 0.604088 7.382469 1.064139 2.348288 21.845203 3.541293 1.755061 13.662650 -4.102696 4.916119 -10.228598 -8.518673 12.263726 1.673876 -3.805049 20.701794 -34.835494 -10.681883 157.744959 -44.928931 -150.370186 23.931728 -19.622853 -53.507282 -11.021342 -1.191053 -5.079646 4.129595 -29.268590 -9.497072 -152.632437 -34.391381 155.677673 -13.589849 -16.870345 35.140748 11.096856 -28.586352 6.195909 -8.414362 63.656755 -5.272358 3.814778 10.015081 5.141100 -0.443770 0.487407 -0.232286 -10.474030 -32.357824 9.054670 28.602093 59.695278 31.576153 -10.309481 36.669211 -5.137542 0.506217 -15.480971 -7.290783
-13.532248 57.232652 67.205771 167.296739 -44.617749 -3.694456 3.082397 26.329721 6.175391 0.382920 4.649672 0.667928 0.605884 7.375785 1.064405 2.341099 21.851986 3.538736 1.738681 13.652020 -4.129747 4.867813 -10.222576 -8.552580 12.291414 1.664744 -3.815997 20.648103 -34.760750 -10.659427 157.804122 -44.836187 -150.425850 23.927398 -19.624109 -53.569070 -10.999753 -1.230100 -5.045552 4.110026 -29.228182 -9.489906 -152.683453 -34.463586 155.718741 -13.535363 -16.827740 35.137949 11.102501 -28.605619 6.192823 -8.423757 63.673050 -5.274143 3.831021 10.022765 5.156009 -0.454129 0.508719 -0.238089 -10.515800 -32.343448 9.078849 28.469211 59.733504 31.499663 -10.740482 36.502169 -5.465976 0.504562 -15.380605 -7.198421
-13.517151 57.225662 67.206863 167.323048 -44.580900 -3.687102 3.055940 26.290862 6.152515 0.383824 4.647653 0.669390 0.609012 7.368668 1.061174 2.338966 21.854844 3.538680 1.709833 13.630193 -4.189497 4.852539 -10.203408 -8.521990 12.380874 1.632880 -3.849602 20.506832 -34.670618 -10.593933 157.873466 -44.675881 -150.514522 23.892180 -19.577022 -53.595234 -10.993103 -1.245064 -5.026598 4.099994 -29.209886 -9.465893 -152.754967 -34.572776 155.757239 -13.548946 -16.819005 35.166197 11.106156 -28.654400 6.149408 -8.416441 63.704992 -5.252342 3.864986 10.011149 5.183157 -0.491040 0.524881 -0.257986 -10.573006 -32.359571 9.100974 28.305874 59.776079 31.395746 -11.493428 36.297946 -5.725945 0.333938 -15.315725 -7.209543
-13.503725 57.218027 67.208027 167.344366 -44.545193 -3.667196 3.032331 26.253737 6.130040 0.375601 4.648005 0.659836 0.618619 7.362107 1.060834 2.347073 21.848513 3.536854 1.681715 13.626302 -4.205134 4.833047 -10.192580 -8.528952 12.460029 1.610823 -3.876598 20.369926 -34.583352 -10.530980 157.907044 -44.561527 -150.581366 23.874009 -19.565703 -53.634710 -10.997203 -1.253658 -5.003464 4.092206 -29.184138 -9.472990 -152.781991 -34.639036 155.754916 -13.571936 -16.831154 35.196079 11.120618 -28.705042 6.094659 -8.421578 63.734906 -5.240654 3.884098 10.037296 5.207950 -0.509517 0.496905 -0.282683 -10.624486 -32.385853 9.110682 28.122507 59.828905 31.285836 -12.248337 36.113464 -6.065708 0.236527 -15.274622 -7.183778
-13.485016 57.211979 67.209456 167.346969 -44.527092 -3.668686 3.029424 26.235120 6.131274 0.377095 4.645152 0.662081 0.623304 7.352083 1.064928 2.353228 21.840198 3.538275 1.656741 13.620719 -4.227266 4.762713 -10.182585 -8.615328 12.483374 1.619680 -3.889825 20.321521 -34.526940 -10.508128 157.932997 -44.460368 -150.644652 23.854204 -19.557537 -53.668744 -10.979141 -1.284775 -4.974949 4.079626 -29.122926 -9.469097 -152.812945 -34.704973 155.776883 -13.553735 -16.800278 35.208086 11.134689 -28.741666 6.081190 -8.419697 63.757671 -5.211373 3.891121 10.057526 5.210723 -0.517956 0.498759 -0.285476 -10.683665 -32.389196 9.150111 27.962460 59.871296 31.184904 -12.736001 35.983884 -6.408469 0.242505 -15.227933 -7.098684
-13.467457 57.206652 67.210262 167.341428 -44.520433 -3.662206 3.035686 26.219068 6.139169 0.377475 4.639504 0.662298 0.624224 7.343701 1.065239 2.363890 21.790713 3.553200 1.622631 13.653070 -4.256188 4.720385 -10.164516 -8.667659 12.562991 1.661387 -3.926689 20.210762 -34.446919 -10.452485 157.926852 -44.378783 -150.685858 23.847355 -19.577270 -53.725085 -10.971024 -1.275658 -4.969274 4.055674 -29.043061 -9.459230 -152.836535 -34.766177 155.796175 -13.541908 -16.780760 35.218094 11.154132 -28.768426 6.063150 -8.398166 63.783809 -5.157761 3.886379 10.082812 5.203575 -0.515064 0.520180 -0.274882 -10.733010 -32.382360 9.177859 27.851664 59.895202 31.110941 -13.058472 35.900242 -6.684798 0.266335 -15.180787 -7.008778
-13.459894 57.202036 67.207822 167.313917 -44.528428 -3.584279 3.025350 26.213469 6.089184 0.377275 4.631343 0.661836 0.625997 7.293597 1.076666 2.350652 21.852722 3.532595 1.615258 13.629625 -4.269419 4.690980 -10.157763 -8.709309 12.663312 1.636678 -3.961931 20.110455 -34.362237 -10.398969 157.950394 -44.251661 -150.771972 23.820318 -19.563704 -53.731538 -10.916690 -1.359600 -4.902983 4.012775 -28.885517 -9.467031 -152.869450 -34.785460 155.857170 -13.550063 -16.789798 35.237676 11.217500 -28.772489 5.981754 -8.367390 63.814573 -5.094074 3.839900 10.114764 5.169625 -0.475841 0.510344 -0.256752 -10.727656 -32.374611 9.141042 27.816578 59.903887 31.068178 -13.299716 35.837615 -6.881659 0.298518 -15.129447 -6.927687
-13.442169 57.195841 67.211173 167.301335 -44.520943 -3.591208 3.041646 26.183198 6.122401 0.376566 4.621236 0.661467 0.623178 7.255793 1.082795 2.353832 21.792925 3.544277 1.586111 13.691913 -4.301856 4.666030 -10.131430 -8.748269 12.720728 1.732163 -3.982895 20.019831 -34.319362 -10.354250 158.002052 -44.158700 -150.848226 23.792378 -19.548977 -53.732492 -10.891981 -1.306618 -4.903144 3.975707 -28.769284 -9.474976 -152.886447 -34.803762 155.885754 -13.555923 -16.796178 35.257749 11.227292 -28.818974 5.957177 -8.261079 63.867677 -4.930685 3.838311 10.157943 5.150018 -0.495439 0.480337 -0.265886 -10.790456 -32.375208 9.205060 27.791764 59.919352 31.023174 -13.402794 35.832558 -6.968468 0.281812 -15.110898 -6.891954
-13.436900 57.186467 67.214825 167.283971 -44.493557 -3.530024 3.022749 26.131082 6.082991 0.376594 4.561122 0.680687 0.617833 7.295064 1.059526 2.359125 21.726612 3.557542 1.564956 13.710264 -4.331668 4.655159 -10.059083 -8.756089 12.784660 1.814120 -3.999944 19.961711 -34.247789 -10.315753 158.003578 -44.051375 -150.892914 23.772735 -19.544943 -53.746661 -10.871058 -1.256580 -4.909111 3.937432 -28.674032 -9.476058 -152.890246 -34.823895 155.895337 -13.539237 -16.776761 35.257814 11.264404 -28.859819 5.880573 -8.219855 63.896440 -4.866511 3.800274 10.186167 5.117183 -0.459107 0.477464 -0.248540 -10.759370 -32.412815 9.156422 27.703753 59.908959 30.990564 -13.600304 35.851603 -7.197323 0.351082 -15.102357 -6.807175
